<svg id="Capa_1" data-name="Capa 1" xmlns="http://www.w3.org/2000/svg" viewBox="0 0 62.9 59.54"><defs><style>.cls-1{fill:#808e2a;}</style></defs><title>actividades-de-limpieza</title><path class="cls-1" d="M62.71,33.54a1.32,1.32,0,0,0-.86-.55c-1.79,0-17.24-.62-17.24-18.56a1,1,0,1,0-2,0C42.59,32.37,27.14,33,25.43,33a.88.88,0,0,0-.63.24c-.15.07-.23.23-.31.31a1.19,1.19,0,0,0,0,1,1.1,1.1,0,0,0,.94.55h.08c1.79,0,17.15.62,17.15,18.56a1,1,0,1,0,2,0c0-17.86,15.37-18.56,17.16-18.56a1.22,1.22,0,0,0,.94-.55A1,1,0,0,0,62.71,33.54ZM43.6,46A17.79,17.79,0,0,0,31.43,34,17.83,17.83,0,0,0,43.6,22,17.83,17.83,0,0,0,55.77,34,17.79,17.79,0,0,0,43.6,46Z"/><path class="cls-1" d="M30.73,13.26a1,1,0,0,0,1-1.09,1,1,0,0,0-1-1c-.94,0-9.36-.31-9.36-10.14a1,1,0,0,0-2,0c0,9.83-8.42,10.14-9.36,10.14H9.91a1,1,0,0,0-.94,1,1,1,0,0,0,1,1c1,0,9.36.31,9.36,10.14a1,1,0,0,0,1,1,.9.9,0,0,0,.93-.94c0-9.83,8.43-10.14,9.36-10.14ZM20.28,17.71a10.42,10.42,0,0,0-5.62-5.54,10.49,10.49,0,0,0,5.62-5.54,10.49,10.49,0,0,0,5.62,5.54A10.46,10.46,0,0,0,20.28,17.71Z"/><path class="cls-1" d="M21.76,46.33c-.93,0-9.36-.31-9.36-10.14a1,1,0,0,0-2,0C10.37,46,2,46.33,1,46.33H.94a1,1,0,0,0-.94,1,1,1,0,0,0,1,1c1,0,9.36.31,9.36,10.14a1,1,0,0,0,1,1c.47.16.93-.31.93-.93,0-9.83,8.43-10.14,9.36-10.14h.08a1.06,1.06,0,0,0,1-1.1A1,1,0,0,0,21.76,46.33ZM11.31,53a10.76,10.76,0,0,0-5.62-5.54,10.46,10.46,0,0,0,5.62-5.54,10.42,10.42,0,0,0,5.62,5.54A10.49,10.49,0,0,0,11.31,53Z"/></svg>