<svg id="Capa_1" data-name="Capa 1" xmlns="http://www.w3.org/2000/svg" viewBox="0 0 60 64.29"><defs><style>.cls-1{fill:#808e2a;}</style></defs><title>actividades-de-limpieza</title><path class="cls-1" d="M53.57,45H51.89a7.58,7.58,0,0,0-3.39.8,5.46,5.46,0,0,1-4.86,0,7.3,7.3,0,0,0-1.93-.64L43.8,28.93h2.27a1.07,1.07,0,0,0,1.07-1.07V23.57a1.07,1.07,0,0,0-1.07-1.07H41.79V19.29a1.07,1.07,0,0,0-.32-.76l-5-5V10.16l1.62-1.3,2.78,5.55,1.91-1-3-6,1.33-1.06H45a1.07,1.07,0,0,0,1.07-1.07V1.07A1.07,1.07,0,0,0,45,0H34.29a9.66,9.66,0,0,0-9.65,9.64,1.07,1.07,0,0,0,1.07,1.07h2.15v2.78L25,16.39a1.07,1.07,0,0,0-.32.75V22.5H22.5V13.93a1,1,0,0,0-.08-.39l-.06-.12-.09-.16L18.21,8.2V1.07A1.07,1.07,0,0,0,17.14,0H10.71A1.07,1.07,0,0,0,9.64,1.07V8.2L5.59,13.26l-.09.16a.67.67,0,0,0-.06.12,1,1,0,0,0-.08.39V22.5H1.07A1.07,1.07,0,0,0,0,23.57v4.29a1.07,1.07,0,0,0,1.07,1.07H3.34L7.51,61.21a1.07,1.07,0,0,0,1.06.93H33.79a6.48,6.48,0,0,0,4.78,2.15h1.68a7.78,7.78,0,0,0,3.39-.8,5.4,5.4,0,0,1,4.86,0,7.85,7.85,0,0,0,3.39.8h1.68A6.44,6.44,0,0,0,60,57.86V51.43A6.43,6.43,0,0,0,53.57,45ZM41.79,2.14h2.14V4.29H41.79ZM45,24.64v2.15H30V24.64ZM26.86,8.57a7.52,7.52,0,0,1,7.43-6.43h5.35v2.7L35,8.57Zm7.43,2.14v2.15H30V10.71Zm-7.5,6.88L29.37,15h5.54l4.73,4.73V22.5H26.79Zm-1.08,7.05h2.15v7.5a1.06,1.06,0,0,0,.59,1l6.43,3.21a1.34,1.34,0,0,1,.66.76,1.37,1.37,0,0,1-.11,1.07,1.26,1.26,0,0,1-1.68.57h0L29.4,36.54A1.07,1.07,0,0,0,28,37a1,1,0,0,0-.11.47V48.21a2.15,2.15,0,0,1-2.15,2.15V40.71H23.57v9.65H21.43V40.71H19.29v9.65H17.14V40.71H15v9.65a2.14,2.14,0,0,1-2.14-2.15V24.64ZM11.79,2.14h4.28V7.5H11.79Zm-.56,7.5h5.4l2.57,3.22H8.66ZM7.5,15H20.36v7.5H7.5ZM2.14,26.79V24.64h8.57v2.15Zm30,24.64v6.43A6.27,6.27,0,0,0,32.52,60h-23l-4-31.07h5.21V48.21A4.29,4.29,0,0,0,15,52.5H25.71A4.29,4.29,0,0,0,30,48.21v-9l2.8,1.4a3.41,3.41,0,0,0,4.57-1.55v0a3.46,3.46,0,0,0-1.54-4.66L30,31.48V28.93H41.64L39.56,45h-1A6.44,6.44,0,0,0,32.14,51.43Zm25.72,6.43a4.29,4.29,0,0,1-4.29,4.28H51.89a5.42,5.42,0,0,1-2.43-.57,7.63,7.63,0,0,0-6.78,0,5.39,5.39,0,0,1-2.43.57H38.57a4.28,4.28,0,0,1-4.28-4.28V56.21a6.38,6.38,0,0,0,4.28,1.65h1.68a7.65,7.65,0,0,0,3.39-.8,5.46,5.46,0,0,1,4.86,0,7.71,7.71,0,0,0,3.39.8h1.68a6.41,6.41,0,0,0,4.29-1.65Zm-4.29-2.15H51.89a5.42,5.42,0,0,1-2.43-.57,7.63,7.63,0,0,0-6.78,0,5.39,5.39,0,0,1-2.43.57H38.57a4.29,4.29,0,0,1,0-8.57h1.68a5.4,5.4,0,0,1,2.43.58,7.63,7.63,0,0,0,6.78,0,5.43,5.43,0,0,1,2.43-.58h1.68a4.29,4.29,0,1,1,0,8.57Z"/><rect class="cls-1" x="52.5" y="49.29" width="2.14" height="2.14"/><rect class="cls-1" x="41.79" y="49.29" width="2.14" height="2.14"/><rect class="cls-1" x="37.5" y="50.36" width="2.14" height="2.14"/><rect class="cls-1" x="48.21" y="50.36" width="2.14" height="2.14"/></svg>