<svg id="Capa_1" data-name="Capa 1" xmlns="http://www.w3.org/2000/svg" viewBox="0 0 46.8 58.49"><defs><style>.cls-1{fill:#808e2a;}</style></defs><title>actividades-de-limpieza</title><path class="cls-1" d="M42.9,7.8V4.87a1,1,0,0,0-1-1h-7.8V1a1,1,0,0,0-1-1H13.65a1,1,0,0,0-1,1V3.9H4.87a1,1,0,0,0-1,1V7.8A3.9,3.9,0,0,0,0,11.7v2a1,1,0,0,0,1,1H2L5.85,53.67v3.85a1,1,0,0,0,1,1H40a1,1,0,0,0,1-1V53.67l3.8-39.05h1.07a1,1,0,0,0,1-1v-2a3.9,3.9,0,0,0-3.9-3.9ZM14.62,2H32.17v2H14.62ZM39,56.54H7.8V54.59H39Zm.09-3.89H7.71L4,14.62H42.8Zm5.76-40H2v-1a2,2,0,0,1,2-1.95h6.82V7.8H5.85V5.85H41v2h-3.9v2H42.9a2,2,0,0,1,2,1.95Zm0,0"/><rect class="cls-1" x="33.15" y="7.8" width="1.95" height="1.95"/><path class="cls-1" d="M25.35,18.52h-3.9a1,1,0,0,0-1,1V47.77a1,1,0,0,0,1,1h3.9a1,1,0,0,0,1-1V19.5a1,1,0,0,0-1-1Zm-1,28.28H22.42V20.47h1.95Zm0,0"/><path class="cls-1" d="M35.1,18.52H31.2a1,1,0,0,0-1,1V47.77a1,1,0,0,0,1,1h3.9a1,1,0,0,0,1-1V19.5a1,1,0,0,0-1-1Zm-1,28.28H32.17V20.47h1.95Zm0,0"/><path class="cls-1" d="M15.6,18.52H11.7a1,1,0,0,0-1,1V47.77a1,1,0,0,0,1,1h3.9a1,1,0,0,0,1-1V19.5a1,1,0,0,0-1-1Zm-1,28.28H12.67V20.47h1.95Zm0,0"/></svg>