<svg id="Capa_1" data-name="Capa 1" xmlns="http://www.w3.org/2000/svg" viewBox="0 0 64.4 65.49"><defs><style>.cls-1{fill:#808e2a;}</style></defs><title>actividades-de-limpieza</title><path class="cls-1" d="M60,56.76H57.36a1.7,1.7,0,0,1-1.69-1.7V45.84a1.09,1.09,0,0,0-1.1-1.09H45.84V3.27a3.28,3.28,0,0,0-6.55,0V44.75H34.15l.7-9.82H36a1.09,1.09,0,0,0,1.09-1.09V29.47A1.09,1.09,0,0,0,36,28.38H24V27.29a1.09,1.09,0,0,0-1.09-1.09H9.82a1.09,1.09,0,0,0-1.09,1.09v1.09H1.09A1.09,1.09,0,0,0,0,29.47v4.37a1.09,1.09,0,0,0,1.09,1.09H2.26L4.37,64.48a1.08,1.08,0,0,0,1.09,1H31.65a1.07,1.07,0,0,0,1.06-.91,6.44,6.44,0,0,0,3.31.91H60a4.37,4.37,0,1,0,0-8.73ZM41.48,3.27a1.09,1.09,0,1,1,2.18,0V40.39H41.48Zm0,39.3h2.18v2.18H41.48Zm12,4.36v2.19H31.65V46.93ZM10.91,44.75h8.74V42.57H10.91V28.38H21.83V46.93H10.91Zm19.77,18,0,.59H6.47l-2-28.38h2.1V32.74H2.18V30.56H8.73V48a1.09,1.09,0,0,0,1.09,1.09h13.1A1.09,1.09,0,0,0,24,48V30.56H34.93v2.18H30.56v2.19h2.1L32,44.75h-1.4a1.09,1.09,0,0,0-1.09,1.09v13.1a6.52,6.52,0,0,0,1.21,3.78ZM60,63.31H36a4.37,4.37,0,0,1-4.37-4.37V51.3h2.19v4.37H36V51.3H38.2v2.18h2.19V51.3h4.36v6.55h2.18V51.3h2.19v2.18H51.3V51.3h2.18v3.76a3.89,3.89,0,0,0,3.88,3.88H60a2.19,2.19,0,0,1,0,4.37Zm0,0"/><rect class="cls-1" x="26.2" y="32.74" width="2.18" height="2.18"/><rect class="cls-1" x="33.84" y="57.85" width="2.18" height="2.18"/></svg>