<svg id="Capa_1" data-name="Capa 1" xmlns="http://www.w3.org/2000/svg" viewBox="0 0 64 64"><defs><style>.cls-1{fill:#808e2a;}</style></defs><title>actividades-de-limpieza</title><path class="cls-1" d="M25,0a1.88,1.88,0,0,0-1.78,2.47c.05.14,4.84,14.91-2.2,22l-2.65,2.65a9.39,9.39,0,0,0-1.19,11.8L1.65,54.4a5.62,5.62,0,0,0,8,8L25.13,46.82a9.36,9.36,0,0,0,11.8-1.19L39.58,43c7-7,21.81-2.25,22-2.2A1.88,1.88,0,0,0,64,39,39,39,0,0,0,25,0ZM7,59.7A1.87,1.87,0,0,1,4.3,57.05l15.4-15.4c.47.48,1.35,1.35,2.65,2.65ZM34.28,43a5.61,5.61,0,0,1-8,0h0L21,37.67a5.63,5.63,0,0,1,0-8l1.33-1.33L35.61,41.65Zm4.07-3.89L24.91,25.66c5.27-6.83,3.7-17.08,2.57-21.82a34.37,34.37,0,0,1,7.36,1.31l-1,3.92a41.14,41.14,0,0,1-1.61,5,1.87,1.87,0,1,0,3.48,1.39A41.7,41.7,0,0,0,37.5,10l.9-3.58a35,35,0,0,1,10.15,6.4L42,19.39A1.87,1.87,0,1,0,44.61,22l6.59-6.59A35,35,0,0,1,57.6,25.6a64.7,64.7,0,0,0-9,2.66A1.87,1.87,0,1,0,50,31.74a64.88,64.88,0,0,1,8.89-2.58,34.37,34.37,0,0,1,1.31,7.36C55.42,35.39,45.17,33.82,38.35,39.09Z"/></svg>