<svg id="Capa_1" data-name="Capa 1" xmlns="http://www.w3.org/2000/svg" viewBox="0 0 60.38 71.54"><defs><style>.cls-1{fill:#808e2a;}</style></defs><title>actividades-de-limpieza</title><path class="cls-1" d="M60,56.79,45.7,42.49V38a18.09,18.09,0,0,0-.14-2.21A6.46,6.46,0,0,0,39.9,24.17l-4.41-6.3a4.54,4.54,0,0,0-6.41-1.17,4.6,4.6,0,0,0-1.3,6l-8.56-8.56a4.53,4.53,0,0,0-6.38-.07A4.35,4.35,0,0,0,11.69,16,4.52,4.52,0,0,0,6,16.5a4.37,4.37,0,0,0-1.35,3.16,4.69,4.69,0,0,0,.77,2.6,4.46,4.46,0,0,0-1.95,1.16,4.53,4.53,0,0,0-.32,5.94,4.4,4.4,0,0,0-1.88,1.12,4.49,4.49,0,0,0,0,6.34l0,0L3.79,39.1a7.26,7.26,0,0,0-.35,2.25,7.43,7.43,0,0,0,1.13,3.93A9.54,9.54,0,0,0,2,51.67a9,9,0,0,0,4,7.47,7.36,7.36,0,0,0,13.46,4.11,10.11,10.11,0,0,0,7.46,3.24,10.25,10.25,0,0,0,8.87-5.16l9.85,9.85a1.17,1.17,0,0,0,1.69,0L60,58.48A1.21,1.21,0,0,0,60,56.79ZM46.39,30.16a4.07,4.07,0,1,1-4.07-4.06A4.07,4.07,0,0,1,46.39,30.16ZM5.21,25.1A2.1,2.1,0,0,1,8.05,25l9.53,9.53a1.2,1.2,0,0,0,1.69,0,1.19,1.19,0,0,0,0-1.69L7.73,21.27a2.22,2.22,0,0,1-.65-1.59,2,2,0,0,1,.62-1.46,2.1,2.1,0,0,1,2.93,0L20.87,28.49a1.22,1.22,0,0,0,.85.35,1.2,1.2,0,0,0,.84-2l-8.17-8.18a2.09,2.09,0,0,1,.13-2.83,2.13,2.13,0,0,1,3,.07l14,14a1.68,1.68,0,0,0,2.62-2.06l0-.05-4.19-6.11a2.22,2.22,0,0,1,.57-2.94,2.15,2.15,0,0,1,3,.56v0l4.37,6.24a6.45,6.45,0,0,0,4.43,11.15,7,7,0,0,0,.93-.06A12.94,12.94,0,0,1,43.32,38v5a1.19,1.19,0,0,0,.35.85l5.48,5.47-11,11-1.09-1.09a8.44,8.44,0,0,0,3.77-7,8.7,8.7,0,0,0-5.56-8.05A11.55,11.55,0,0,0,23.89,34a11.82,11.82,0,0,0-7.43,2.66A7.31,7.31,0,0,0,11.16,34L5.28,28.11A2.13,2.13,0,0,1,5.21,25.1ZM3,35.11a2.08,2.08,0,0,1,0-2.94,2.08,2.08,0,0,1,2.82-.12l2.4,2.4A7.32,7.32,0,0,0,4.94,36.9Zm23.92,29a7.8,7.8,0,0,1-6.67-3.73,1.19,1.19,0,0,0-1-.57h-.14a1.2,1.2,0,0,0-1,.83,5,5,0,0,1-9.7-1.5c0-.17,0-.35,0-.52a1.19,1.19,0,0,0-.6-1.16,6.64,6.64,0,0,1-3.41-5.78,7.27,7.27,0,0,1,2.55-5.35,1.22,1.22,0,0,0,.42-.82,1.23,1.23,0,0,0-.3-.88A5,5,0,1,1,15.19,39a1.18,1.18,0,0,0,.89.62,1.23,1.23,0,0,0,1-.35,9.44,9.44,0,0,1,6.78-2.92A9.18,9.18,0,0,1,33,45.09a1.22,1.22,0,0,0,.89,1.09,6.24,6.24,0,0,1,4.58,6,6.09,6.09,0,0,1-3.37,5.46,1.19,1.19,0,0,0-.61.74A7.84,7.84,0,0,1,26.91,64.1Zm19.56,4.55L39.83,62l11-11,6.65,6.64Z"/><path class="cls-1" d="M27.12,9.4a4.7,4.7,0,1,1,4.7-4.7A4.71,4.71,0,0,1,27.12,9.4Zm0-7A2.31,2.31,0,1,0,29.43,4.7,2.31,2.31,0,0,0,27.12,2.39Z"/><path class="cls-1" d="M39,15.54a4.7,4.7,0,1,1,4.7-4.7A4.71,4.71,0,0,1,39,15.54Zm0-7a2.31,2.31,0,1,0,2.31,2.31A2.32,2.32,0,0,0,39,8.53Z"/></svg>