<svg id="Capa_1" data-name="Capa 1" xmlns="http://www.w3.org/2000/svg" viewBox="0 0 76.87 44.84"><defs><style>.cls-1{fill:#808019;}</style></defs><title>web clean3</title><path class="cls-1" d="M18.58,3.52C16,1,5.12.32,1.6,0a1.18,1.18,0,0,0-1,.32A2.43,2.43,0,0,0,0,1.6V30.43A1.51,1.51,0,0,0,1.6,32h9.61a1.76,1.76,0,0,0,1.6-1c0-1,5.77-17.94,6.41-26.27A1.28,1.28,0,0,0,18.58,3.52Z"/><path class="cls-1" d="M44.2,8c-5.76-2.56-8.33-1.28-13.45,3.84-2.24,2.24-3.84,5.45-3.52,6.73,0,.32,0,.32.64.64,1.6.64,3.84,1,6.08-2.56A1.66,1.66,0,0,1,35.23,16a5.77,5.77,0,0,0,2.25-.65,15.6,15.6,0,0,1,2.24-1h.64c.32,0,1,.32,1.28.32,1.6,1.61,4.48,3.85,7.37,6.41,4.48,3.52,9,7.37,11.21,10.25h.32C58.3,25,54.45,14.09,52.85,11.21,49.65,10.25,46.77,9,44.2,8Z"/><path class="cls-1" d="M75.27,3.2c-12.49,0-19.54,3.21-19.86,3.21l-1,1a1.92,1.92,0,0,0,.32,1.28c1.93,3.2,8.33,20.82,9.29,25.3a2.13,2.13,0,0,0,1.6,1.28h9.61a1.51,1.51,0,0,0,1.6-1.6V4.8A1.51,1.51,0,0,0,75.27,3.2Z"/><path class="cls-1" d="M46.45,23.7c-2.57-2.24-5.13-4.16-7.05-5.76-.32.32-1,.32-1,.64a6,6,0,0,1-2.57.64c-2.56,3.2-5.76,4.48-9.28,3.2a3.78,3.78,0,0,1-2.89-2.88c-.64-3.2,2.25-7.69,4.49-9.93H21.78a163.55,163.55,0,0,1-5.12,19.22,36.17,36.17,0,0,0,3.52,3.52c6.09,5.13,13.13,10.25,14.41,11.21a9.14,9.14,0,0,0,3.85,1.28h1l-5.13-5.12a1.59,1.59,0,1,1,2.25-2.24l6.4,6.4c.64.64,1.28.32,1.92.32,1-.32,1.28-1,1.61-1.92l-7.37-7.37a1.58,1.58,0,0,1,2.24-2.24l8,8a3.42,3.42,0,0,0,2.56,0c.32-.32,1-.64,1.28-1.28l-9-9a1.59,1.59,0,0,1,2.25-2.24l9.28,9.29a2.14,2.14,0,0,0,1.93-.32A2.19,2.19,0,0,0,58,34.59C56.7,31.71,51.25,27.55,46.45,23.7Z"/></svg>