<svg id="Capa_1" data-name="Capa 1" xmlns="http://www.w3.org/2000/svg" viewBox="0 0 58.84 58.84"><defs><style>.cls-1{fill:#fff;}.cls-2{fill:#808019;}</style></defs><title>capacitacion-entrenamiento</title><circle class="cls-1" cx="29.42" cy="29.42" r="29.42"/><path class="cls-2" d="M14.16,21.2H16V34.74a1.16,1.16,0,0,0,1.16,1.17h4.27L16.18,44.1a1.15,1.15,0,0,0,.34,1.59,1.17,1.17,0,0,0,.63.17,1.14,1.14,0,0,0,1-.54l6.06-9.44H34.76l6.05,9.47a1.19,1.19,0,0,0,1,.54,1.27,1.27,0,0,0,.63-.17,1.12,1.12,0,0,0,.34-1.59l-5.24-8.22h4.3A1.17,1.17,0,0,0,43,34.74V21.2h1.85A1.15,1.15,0,0,0,46,20V14a1.15,1.15,0,0,0-1.16-1.17H14.16A1.15,1.15,0,0,0,13,14v6A1.15,1.15,0,0,0,14.16,21.2ZM40.64,33.6H35.72a1.27,1.27,0,0,0-.77,0H18.34V21.2H40.67V33.6ZM15.27,15.2H43.63v3.67H15.3V15.2Z"/><path class="cls-2" d="M21.78,31.33a1.19,1.19,0,0,0,.83-.35l1.85-1.85,3.81,1a1.2,1.2,0,0,0,1.19-.37l3.87-4.61a1.17,1.17,0,1,0-1.79-1.51l-3.41,4-3.76-1a1.08,1.08,0,0,0-1.11.31l-2.33,2.33a1.16,1.16,0,0,0,0,1.65A1.38,1.38,0,0,0,21.78,31.33Z"/></svg>