<svg id="Capa_1" data-name="Capa 1" xmlns="http://www.w3.org/2000/svg" viewBox="0 0 38.54 72.42"><defs><style>.cls-1{fill:#808019;}</style></defs><title>web clean3</title><path class="cls-1" d="M2.81,13l6.73-.12.31,3.5H20.31L24.6,5.84h9.27V0H14.71a5.17,5.17,0,0,0-3.52,1.41S4.5,8,2.58,9.72C-.67,12.63,2.81,13,2.81,13Z"/><polygon class="cls-1" points="35.04 5.18 38.54 4.23 38.54 1.97 35.04 0.73 35.04 5.18"/><rect class="cls-1" x="8.18" y="17.52" width="14.02" height="4.67"/><path class="cls-1" d="M28,51.83c0-10.66-5.76-13.19-6.38-13.77a2.77,2.77,0,0,1-1-2.3c0-1.17,1.57-2,1.57-3.25,0-2.14-1.5-2.48-1.5-3.5,0-1.76,1.31-1.7,1.31-3.16a2.47,2.47,0,0,0-1.31-2.49s-9.7-.07-11.87,0A60,60,0,0,0,0,52.56V68.62c0,3.5,1.7,3.8,1.7,3.8H26.59c1.75,0,1.44-2.34,1.44-2.34Z"/><path class="cls-1" d="M38,19.86A20.57,20.57,0,0,1,32.57,7H26.18A19.81,19.81,0,0,0,35.68,21c1.7,1,2.27.87,2.55.53A1.15,1.15,0,0,0,38,19.86Z"/></svg>