<svg id="Capa_1" data-name="Capa 1" xmlns="http://www.w3.org/2000/svg" viewBox="0 0 49.97 63.79"><defs><style>.cls-1{fill:#808019;}</style></defs><title>web clean3</title><path class="cls-1" d="M34.46,0H0V63.79H50V15.51ZM11.69,14.88H22.33a1.07,1.07,0,0,1,0,2.13H11.69a1.07,1.07,0,0,1,0-2.13ZM38.27,51H11.69a1.06,1.06,0,1,1,0-2.12H38.27a1.06,1.06,0,1,1,0,2.12Zm0-8.5H11.69a1.07,1.07,0,0,1,0-2.13H38.27a1.07,1.07,0,1,1,0,2.13Zm0-8.51H11.69a1.07,1.07,0,0,1,0-2.13H38.27a1.07,1.07,0,1,1,0,2.13Zm0-8.5H11.69a1.07,1.07,0,0,1,0-2.13H38.27a1.07,1.07,0,1,1,0,2.13ZM33,17V2.13L47.84,17Z"/></svg>