<svg id="Capa_1" data-name="Capa 1" xmlns="http://www.w3.org/2000/svg" xmlns:xlink="http://www.w3.org/1999/xlink" viewBox="0 0 62.6 44.72"><defs><style>.cls-1{fill:none;}.cls-2{clip-path:url(#clip-path);}.cls-3{fill:#fff;}</style><clipPath id="clip-path"><rect class="cls-1" x="-854.05" y="-639.49" width="1200" height="600"/></clipPath></defs><title>dat11111</title><g class="cls-2"><image width="5633" height="3687" transform="translate(-878.05 -776.49) scale(0.22)" xlink:href="../../web%20clean4%20home_Carpeta/Links/IMG_9703.JPG"/></g><path class="cls-3" d="M31.31,31.31l-7.75-6.79-22.14,19A4.41,4.41,0,0,0,4.5,44.72H58.1a4.42,4.42,0,0,0,3.08-1.23L39,24.52Zm0,0"/><path class="cls-3" d="M61.18,1.22A4.41,4.41,0,0,0,58.1,0H4.5A4.48,4.48,0,0,0,1.42,1.22L31.31,26.84Zm0,0"/><path class="cls-3" d="M0,3.93V41.07L21.61,22.7Zm0,0"/><path class="cls-3" d="M41,22.7,62.6,41.07V3.91Zm0,0"/></svg>