<svg id="Capa_1" data-name="Capa 1" xmlns="http://www.w3.org/2000/svg" xmlns:xlink="http://www.w3.org/1999/xlink" viewBox="0 0 35.48 51.5"><defs><style>.cls-1{fill:none;}.cls-2{clip-path:url(#clip-path);}.cls-3{fill:#fff;}</style><clipPath id="clip-path"><rect class="cls-1" x="-581.39" y="-636.09" width="1200" height="600"/></clipPath></defs><title>dat11111</title><g class="cls-2"><image width="5633" height="3687" transform="translate(-605.39 -773.09) scale(0.22)" xlink:href="../../web%20clean4%20home_Carpeta/Links/IMG_9703.JPG"/></g><path class="cls-3" d="M34.64,12.82a14.77,14.77,0,0,0-.83-2.06A17.31,17.31,0,0,0,17.5,0,17.34,17.34,0,0,0,0,16v2.19c0,.1,0,.92.08,1.33.64,5.13,4.68,10.58,7.7,15.7,3.25,5.5,6.63,10.9,10,16.3C19.81,48,21.86,44.41,23.88,41c.55-1,1.18-2,1.73-3,.37-.64,1.07-1.28,1.39-1.88,3.25-5.95,8.48-11.95,8.48-17.85V15.84a17.79,17.79,0,0,0-.84-3Zm-17,11a6.28,6.28,0,0,1-6-4.3,5.86,5.86,0,0,1-.18-1.61V16.52c0-4,3.42-5.85,6.4-5.85a6.48,6.48,0,0,1,6.49,6.59,6.64,6.64,0,0,1-6.69,6.59Zm0,0"/></svg>