<svg id="Capa_1" data-name="Capa 1" xmlns="http://www.w3.org/2000/svg" viewBox="0 0 55.53 39.67"><defs><style>.cls-1{fill:#fff;}</style></defs><title>dress</title><path class="cls-1" d="M27.78,27.78l-6.88-6L1.26,38.59A4,4,0,0,0,4,39.67H51.55a3.94,3.94,0,0,0,2.72-1.08L34.63,21.75Zm0,0"/><path class="cls-1" d="M54.27,1.09A3.87,3.87,0,0,0,51.55,0H4A4,4,0,0,0,1.26,1.09L27.78,23.81Zm0,0"/><path class="cls-1" d="M0,3.49V36.44l19.18-16.3Zm0,0"/><path class="cls-1" d="M36.36,20.14l19.17,16.3v-33Zm0,0"/></svg>