<svg id="Capa_1" data-name="Capa 1" xmlns="http://www.w3.org/2000/svg" viewBox="0 0 42.7 42.67"><defs><style>.cls-1{fill:#fff;}</style></defs><title>dress</title><path class="cls-1" d="M42.68,33.68a2.08,2.08,0,0,1-.63,1.81l-6,6a3.5,3.5,0,0,1-1.07.77,4.33,4.33,0,0,1-1.28.41l-.28,0a4.8,4.8,0,0,1-.58,0,19.88,19.88,0,0,1-2.78-.29,21.29,21.29,0,0,1-4.71-1.45A39.46,39.46,0,0,1,19,37.47a47.07,47.07,0,0,1-7.51-6.32,50.61,50.61,0,0,1-5.24-6A41.83,41.83,0,0,1,3,19.91a27.54,27.54,0,0,1-1.9-4.38,23.39,23.39,0,0,1-.86-3.39A11.28,11.28,0,0,1,0,9.9c0-.54,0-.84,0-.9A4.3,4.3,0,0,1,.46,7.71a3.34,3.34,0,0,1,.77-1.06l6-6A2,2,0,0,1,8.69,0a1.66,1.66,0,0,1,1,.34,3.07,3.07,0,0,1,.76.84l4.84,9.17a2.2,2.2,0,0,1,.23,1.58,2.8,2.8,0,0,1-.77,1.45L12.57,15.6a.65.65,0,0,0-.15.29,1,1,0,0,0-.07.34,8.3,8.3,0,0,0,.81,2.17A20.28,20.28,0,0,0,14.83,21,30.77,30.77,0,0,0,18,24.64a31.28,31.28,0,0,0,3.62,3.23,20.62,20.62,0,0,0,2.65,1.69,6.89,6.89,0,0,0,1.62.66l.57.11a.89.89,0,0,0,.29-.07.76.76,0,0,0,.3-.15l2.57-2.63a2.78,2.78,0,0,1,1.9-.72,2.37,2.37,0,0,1,1.22.27h0l8.72,5.16a2.26,2.26,0,0,1,1.13,1.49Zm0,0"/></svg>