<svg id="Capa_1" data-name="Capa 1" xmlns="http://www.w3.org/2000/svg" viewBox="0 0 31.48 45.69"><defs><style>.cls-1{fill:#fff;}</style></defs><title>dress</title><path class="cls-1" d="M30.73,11.37A14.53,14.53,0,0,0,30,9.54,15.38,15.38,0,0,0,15.53,0,15.38,15.38,0,0,0,0,14.17v2c0,.08,0,.82.07,1.18.57,4.55,4.16,9.38,6.84,13.93,2.88,4.88,5.87,9.67,8.84,14.46,1.83-3.13,3.65-6.3,5.43-9.34.49-.89,1.06-1.79,1.54-2.64.33-.57,1-1.14,1.23-1.67,2.88-5.28,7.53-10.59,7.53-15.84V14.05a16.26,16.26,0,0,0-.75-2.68ZM15.65,21.16a5.58,5.58,0,0,1-5.35-3.82,5.41,5.41,0,0,1-.15-1.42V14.66c0-3.57,3-5.2,5.68-5.2a5.75,5.75,0,0,1,5.76,5.85,5.9,5.9,0,0,1-5.94,5.85Zm0,0"/></svg>