<svg id="Capa_1" data-name="Capa 1" xmlns="http://www.w3.org/2000/svg" viewBox="0 0 62 36.17"><defs><style>.cls-1{fill:#72809e;}</style></defs><title>nnnn</title><path class="cls-1" d="M15,2.84C12.92.77,4.13.26,1.29,0A.93.93,0,0,0,.52.26a1.94,1.94,0,0,0-.52,1V24.54a1.22,1.22,0,0,0,1.29,1.29H9a1.41,1.41,0,0,0,1.29-.77c0-.78,4.65-14.47,5.17-21.18A1,1,0,0,0,15,2.84Z"/><path class="cls-1" d="M42.63,9c-2.59-.77-4.91-1.81-7-2.58-4.65-2.07-6.72-1-10.85,3.1C23,11.37,21.7,14,22,15c0,.26,0,.26.51.52,1.3.52,3.1.78,4.91-2.07a1.38,1.38,0,0,1,1-.51,4.73,4.73,0,0,0,1.8-.52A12,12,0,0,1,32,11.63h.52c.26,0,.77.25,1,.25,1.3,1.3,3.62,3.1,5.94,5.17,3.62,2.84,7.24,5.94,9,8.27h.25C47,20.15,43.92,11.37,42.63,9Z"/><path class="cls-1" d="M60.71,2.58a45.21,45.21,0,0,0-16,2.59l-.77.77a1.61,1.61,0,0,0,.25,1c1.55,2.58,6.72,16.79,7.5,20.4a1.7,1.7,0,0,0,1.29,1h7.75A1.23,1.23,0,0,0,62,27.12V3.87A1.22,1.22,0,0,0,60.71,2.58Z"/><path class="cls-1" d="M46.76,27.9c-1-2.32-5.43-5.68-9.3-8.78-2.07-1.81-4.13-3.36-5.69-4.65-.25.25-.77.25-.77.51a4.81,4.81,0,0,1-2.07.52c-2.06,2.58-4.65,3.62-7.49,2.58a3,3,0,0,1-2.32-2.32c-.52-2.58,1.81-6.2,3.61-8H17.57a131.29,131.29,0,0,1-4.14,15.5,28.92,28.92,0,0,0,2.85,2.84c4.9,4.14,10.59,8.27,11.62,9a7.36,7.36,0,0,0,3.1,1h.78L27.64,32a1.28,1.28,0,0,1,1.81-1.8l5.17,5.16c.51.52,1,.26,1.55.26.77-.26,1-.77,1.29-1.55l-5.94-5.94a1.28,1.28,0,0,1,1.81-1.81l6.45,6.46a2.76,2.76,0,0,0,2.07,0c.26-.26.78-.52,1-1l-7.23-7.24a1.25,1.25,0,0,1,0-1.81,1.26,1.26,0,0,1,1.81,0L45,30.23A1.73,1.73,0,0,0,46.5,30,1.77,1.77,0,0,0,46.76,27.9Z"/></svg>