<svg id="Capa_1" data-name="Capa 1" xmlns="http://www.w3.org/2000/svg" viewBox="0 0 45.87 38.6"><defs><style>.cls-1{fill:#72809e;}</style></defs><title>nnnn</title><path class="cls-1" d="M27.68,6.63a8.34,8.34,0,0,1,3.88,6.19,6.73,6.73,0,1,0-3.88-6.19ZM23.27,20.4a6.73,6.73,0,1,0-6.73-6.73A6.73,6.73,0,0,0,23.27,20.4Zm2.86.46H20.42a8.63,8.63,0,0,0-8.62,8.61v7l0,.11.48.15A39.14,39.14,0,0,0,24,38.6c6.33,0,10-1.8,10.22-1.92l.45-.23h.05v-7A8.62,8.62,0,0,0,26.13,20.86Zm11.13-6.95H31.59A8.3,8.3,0,0,1,29,19.69a10.22,10.22,0,0,1,7.31,9.79v2.15a23.24,23.24,0,0,0,9-1.89l.45-.23h0v-7A8.63,8.63,0,0,0,37.26,13.91Zm-25.79-.45a6.75,6.75,0,0,0,3.58-1,8.32,8.32,0,0,1,3.13-5.31c0-.13,0-.25,0-.38a6.73,6.73,0,1,0-6.73,6.73Zm6,6.23A8.31,8.31,0,0,1,15,14c-.21,0-.41,0-.63,0H8.61A8.63,8.63,0,0,0,0,22.53v7l0,.11.48.15a40.31,40.31,0,0,0,9.7,1.82V29.48A10.23,10.23,0,0,1,17.51,19.69Z"/></svg>