<svg id="Capa_1" data-name="Capa 1" xmlns="http://www.w3.org/2000/svg" viewBox="0 0 32 42.67"><defs><style>.cls-1{fill:#72809e;}</style></defs><title>nnnn</title><path class="cls-1" d="M31.11,16H28.44V12.44a12.44,12.44,0,0,0-24.88,0V16H.89a.89.89,0,0,0-.89.89V39.11a3.56,3.56,0,0,0,3.56,3.56H28.44A3.56,3.56,0,0,0,32,39.11V16.89A.89.89,0,0,0,31.11,16ZM18.66,34.57a.88.88,0,0,1-.22.69.89.89,0,0,1-.66.3H14.22a.89.89,0,0,1-.66-.3.88.88,0,0,1-.22-.69l.56-5a3.56,3.56,0,1,1,4.2,0ZM23.11,16H8.89V12.44a7.11,7.11,0,1,1,14.22,0Z"/></svg>