<svg id="Capa_1" data-name="Capa 1" xmlns="http://www.w3.org/2000/svg" viewBox="0 0 47.44 49.89"><defs><style>.cls-1{fill:#72809e;}</style></defs><title>nnnn</title><path class="cls-1" d="M46.15,23.39,24.07,1.31a4.44,4.44,0,0,0-6.3,0L5.68,13.4a4.51,4.51,0,0,0,0,6.35l2,2.06h4.62L8,17.44a1.24,1.24,0,0,1-.34-.87A1.2,1.2,0,0,1,8,15.72l1.6-1.55,7.59,7.64h7.28L13.23,10.53l6.85-6.89a1.24,1.24,0,0,1,.84-.36,1.17,1.17,0,0,1,.84.34L43.84,25.7a1.16,1.16,0,0,1,.35.84,1.28,1.28,0,0,1-.38.84L42.56,28.6v4.62l3.56-3.53A4.45,4.45,0,0,0,46.15,23.39Z"/><path class="cls-1" d="M35.79,23.88H4.56A4.53,4.53,0,0,0,0,28.32V40.13H40.19V28.32A4.4,4.4,0,0,0,35.79,23.88ZM10.91,36.11a3.22,3.22,0,0,1-2.24-.91,3.24,3.24,0,1,1,0-4.67,3.21,3.21,0,0,1,2.24-.9,3.24,3.24,0,1,1,0,6.48Z"/><path class="cls-1" d="M0,45.42a4.56,4.56,0,0,0,4.56,4.47H35.79a4.42,4.42,0,0,0,4.4-4.47v-.26H0Z"/></svg>