<svg id="Capa_1" data-name="Capa 1" xmlns="http://www.w3.org/2000/svg" viewBox="0 0 61.48 44.99"><defs><style>.cls-1{fill:#72809e;}</style></defs><title>mision</title><ellipse class="cls-1" cx="41.99" cy="25.74" rx="19.49" ry="19.24"/><path class="cls-1" d="M19.93,0a16.79,16.79,0,0,1-9,8.87,16.76,16.76,0,0,1,9,8.88,16.84,16.84,0,0,1,9-8.88A16.77,16.77,0,0,1,19.93,0Z"/><path class="cls-1" d="M9,24.31a16.86,16.86,0,0,1-9,8.87,17.2,17.2,0,0,1,9,8.87,16.81,16.81,0,0,1,9-8.87A16.79,16.79,0,0,1,9,24.31Z"/></svg>