<svg id="Capa_1" data-name="Capa 1" xmlns="http://www.w3.org/2000/svg" viewBox="0 0 58.84 58.84"><defs><style>.cls-1{fill:#fff;}.cls-2{fill:#808019;}</style></defs><title>monitoreo-control</title><circle class="cls-1" cx="29.42" cy="29.42" r="29.42"/><path class="cls-2" d="M46,40.06l-8-8a15.26,15.26,0,0,1-4.63,4.63l8,8A3.27,3.27,0,1,0,46,40.06Z"/><path class="cls-2" d="M38.26,23.82a13.1,13.1,0,1,0-13.1,13.1A13.09,13.09,0,0,0,38.26,23.82Zm-13.1,9.83A9.83,9.83,0,1,1,35,23.82,9.84,9.84,0,0,1,25.16,33.65Z"/><path class="cls-2" d="M17.52,23.82h2.19a5.46,5.46,0,0,1,5.45-5.45V16.18A7.65,7.65,0,0,0,17.52,23.82Z"/></svg>