<svg id="Capa_1" data-name="Capa 1" xmlns="http://www.w3.org/2000/svg" viewBox="0 0 56 56"><defs><style>.cls-1{fill:#fff;}.cls-2{fill:#808019;}</style></defs><title>personal-especializado</title><circle class="cls-1" cx="28" cy="28" r="28"/><path class="cls-2" d="M20.55,15.93a3.06,3.06,0,1,1-3.06-3,3.06,3.06,0,0,1,3.06,3Zm0,0"/><path class="cls-2" d="M14.08,29.69h.31v6.07a1.52,1.52,0,0,0,1.51,1.51h3.18a1.52,1.52,0,0,0,1.52-1.51V35.4a3.78,3.78,0,0,1-.45-1.77V25.7a3.78,3.78,0,0,1,2.27-3.46v-.6a1.53,1.53,0,0,0-1.52-1.52H14.08a1.52,1.52,0,0,0-1.51,1.52v6.54a1.5,1.5,0,0,0,1.51,1.51Zm0,0"/><path class="cls-2" d="M41.71,15.93a3.06,3.06,0,1,1-3.05-3,3.06,3.06,0,0,1,3.05,3Zm0,0"/><path class="cls-2" d="M33.71,21.61v.61A3.79,3.79,0,0,1,36,25.68v7.9a3.46,3.46,0,0,1-.46,1.77v.36A1.52,1.52,0,0,0,37,37.22h3.18a1.52,1.52,0,0,0,1.52-1.51V29.64H42a1.52,1.52,0,0,0,1.52-1.51V21.61A1.52,1.52,0,0,0,42,20.1H35.22a1.52,1.52,0,0,0-1.51,1.51Zm0,0"/><path class="cls-2" d="M22.44,25.7v7.93A1.53,1.53,0,0,0,24,35.15h.58V42.3a1.52,1.52,0,0,0,1.51,1.51h4.07a1.52,1.52,0,0,0,1.52-1.51V35.12h.58a1.52,1.52,0,0,0,1.51-1.51V25.7a1.52,1.52,0,0,0-1.51-1.51H24a1.5,1.5,0,0,0-1.52,1.51Zm0,0"/><path class="cls-2" d="M31.58,19.42a3.51,3.51,0,1,1-3.5-3.51,3.51,3.51,0,0,1,3.5,3.51Zm0,0"/></svg>