<svg id="Capa_1" data-name="Capa 1" xmlns="http://www.w3.org/2000/svg" viewBox="0 0 58.84 58.84"><defs><style>.cls-1{fill:#fff;}.cls-2{fill:#808019;}</style></defs><title>plan-de-trabajo</title><circle class="cls-1" cx="29.42" cy="29.42" r="29.42"/><path class="cls-2" d="M34.65,12.5H16.38V46.33h26.5V20.72ZM22.58,20.39h5.64a.57.57,0,0,1,0,1.13H22.58a.57.57,0,0,1,0-1.13Zm14.1,19.17H22.58A.56.56,0,0,1,22,39a.57.57,0,0,1,.56-.57h14.1a.57.57,0,0,1,.56.57A.56.56,0,0,1,36.68,39.56Zm0-4.51H22.58a.57.57,0,0,1,0-1.13h14.1a.57.57,0,0,1,0,1.13Zm0-4.51H22.58a.57.57,0,0,1,0-1.13h14.1a.57.57,0,0,1,0,1.13Zm0-4.51H22.58a.57.57,0,0,1,0-1.13h14.1a.57.57,0,0,1,0,1.13Zm-2.82-4.51v-7.9l7.89,7.9Z"/></svg>