<svg id="Capa_1" data-name="Capa 1" xmlns="http://www.w3.org/2000/svg" viewBox="0 0 58.84 58.84"><defs><style>.cls-1{fill:#fff;}.cls-2{fill:#808019;}</style></defs><title>productos</title><circle class="cls-1" cx="29.42" cy="29.42" r="29.42"/><path class="cls-2" d="M21.3,17.13,25,17.07,25.15,19h5.73l2.36-5.76h5.08V10H27.81a2.82,2.82,0,0,0-1.92.77s-3.67,3.61-4.72,4.55C19.39,17,21.3,17.13,21.3,17.13Z"/><polygon class="cls-2" points="38.96 12.87 40.88 12.35 40.88 11.11 38.96 10.43 38.96 12.87"/><rect class="cls-2" x="24.24" y="19.63" width="7.68" height="2.56"/><path class="cls-2" d="M35.12,38.43c0-5.84-3.16-7.23-3.5-7.55a1.49,1.49,0,0,1-.56-1.25c0-.64.86-1.12.86-1.79,0-1.17-.83-1.36-.83-1.92,0-1,.72-.93.72-1.73a1.35,1.35,0,0,0-.72-1.36s-5.31,0-6.5,0a32.88,32.88,0,0,0-4.84,16v8.8c0,1.92.94,2.08.94,2.08H34.33c1,0,.79-1.28.79-1.28Z"/><path class="cls-2" d="M40.56,20.91a11.3,11.3,0,0,1-3-7H34.1a10.89,10.89,0,0,0,5.21,7.64c.93.56,1.25.48,1.39.29A.63.63,0,0,0,40.56,20.91Z"/></svg>