<svg id="Capa_1" data-name="Capa 1" xmlns="http://www.w3.org/2000/svg" viewBox="0 0 68 59.77"><defs><style>.cls-1{fill:#808019;}</style></defs><title>web clean3</title><path class="cls-1" d="M28,31.88H40v4H28Z"/><path class="cls-1" d="M55.17,35.86H44v2a2,2,0,0,1-2,2H26a2,2,0,0,1-2-2v-2H12.83a6,6,0,0,1-5.67-4.09L0,10.28V53.79a6,6,0,0,0,6,6H62a6,6,0,0,0,6-6V10.28L60.84,31.77A6,6,0,0,1,55.17,35.86Z"/><path class="cls-1" d="M42,0H26a6,6,0,0,0-6,6V8H3.43l7.51,22.54a2,2,0,0,0,1.89,1.37H24v-2a2,2,0,0,1,2-2H42a2,2,0,0,1,2,2v2H55.17a2,2,0,0,0,1.89-1.37L64.57,8H48V6A6,6,0,0,0,42,0ZM24,8V6a2,2,0,0,1,2-2H42a2,2,0,0,1,2,2V8Z"/></svg>