<svg id="Capa_1" data-name="Capa 1" xmlns="http://www.w3.org/2000/svg" viewBox="0 0 58.84 58.84"><defs><style>.cls-1{fill:#fff;}.cls-2{fill:#808019;}</style></defs><title>supervisores</title><circle class="cls-1" cx="29.42" cy="29.42" r="29.42"/><path class="cls-2" d="M29.3,16.71c-7.86,0-15,4.31-20.25,11.29a1.64,1.64,0,0,0,0,1.95c5.26,7,12.39,11.29,20.25,11.29s15-4.3,20.26-11.28a1.64,1.64,0,0,0,0-1.95C44.3,21,37.17,16.71,29.3,16.71Zm.57,20.91a8.66,8.66,0,1,1,8.07-8.08A8.67,8.67,0,0,1,29.87,37.62Zm-.26-4A4.66,4.66,0,1,1,34,29.27,4.66,4.66,0,0,1,29.61,33.63Z"/></svg>