<svg id="Capa_1" data-name="Capa 1" xmlns="http://www.w3.org/2000/svg" xmlns:xlink="http://www.w3.org/1999/xlink" viewBox="0 0 48.13 48.1"><defs><style>.cls-1{fill:none;}.cls-2{clip-path:url(#clip-path);}.cls-3{fill:#fff;}</style><clipPath id="clip-path"><rect class="cls-1" x="-286.64" y="-637.8" width="1200" height="600"/></clipPath></defs><title>tel</title><g class="cls-2"><image width="5633" height="3687" transform="translate(-310.64 -774.8) scale(0.22)" xlink:href="../../web%20clean4%20home_Carpeta/Links/IMG_9703.JPG"/></g><path class="cls-3" d="M48.11,38a2.36,2.36,0,0,1-.71,2l-6.78,6.72a4,4,0,0,1-1.2.87,5,5,0,0,1-1.45.46l-.31,0a5.86,5.86,0,0,1-.66,0,23.57,23.57,0,0,1-3.13-.33,24,24,0,0,1-5.3-1.63,45,45,0,0,1-7.11-3.9A53,53,0,0,1,13,35.11a55.89,55.89,0,0,1-5.91-6.73,48.6,48.6,0,0,1-3.77-5.93A32.6,32.6,0,0,1,1.18,17.5a25.47,25.47,0,0,1-1-3.82A12.11,12.11,0,0,1,0,11.16c0-.61,0-.95,0-1A4.88,4.88,0,0,1,.52,8.69a3.81,3.81,0,0,1,.86-1.2L8.16.71A2.27,2.27,0,0,1,9.79,0,1.93,1.93,0,0,1,11,.38a3.72,3.72,0,0,1,.87.94l5.45,10.35a2.48,2.48,0,0,1,.26,1.78,3.2,3.2,0,0,1-.87,1.63l-2.5,2.5a1,1,0,0,0-.17.33,1,1,0,0,0-.08.38,8.85,8.85,0,0,0,.92,2.45,21.69,21.69,0,0,0,1.88,3,33.68,33.68,0,0,0,3.62,4.05,33.4,33.4,0,0,0,4.08,3.64,21.62,21.62,0,0,0,3,1.91,7.56,7.56,0,0,0,1.83.74l.64.13a1.25,1.25,0,0,0,.33-.08.84.84,0,0,0,.33-.18L33.43,31a3.17,3.17,0,0,1,2.14-.82,2.71,2.71,0,0,1,1.38.31h0l9.83,5.81A2.56,2.56,0,0,1,48.11,38Zm0,0"/></svg>