<svg id="Capa_1" data-name="Capa 1" xmlns="http://www.w3.org/2000/svg" viewBox="0 0 58.84 58.84"><defs><style>.cls-1{fill:#fff;}.cls-2{fill:#808019;}</style></defs><title>uniformes</title><circle class="cls-1" cx="29.42" cy="29.42" r="29.42"/><path class="cls-2" d="M29,16.82a3.47,3.47,0,0,0,3.3-2.4,12.68,12.68,0,0,1-3.3.4,12.7,12.7,0,0,1-3.31-.4A3.47,3.47,0,0,0,29,16.82Z"/><path class="cls-2" d="M46.49,18.57a.79.79,0,0,0-.42-.46L39.38,15a32.86,32.86,0,0,0-4.33-1.14H34.9a.78.78,0,0,0-.77.61,5.26,5.26,0,0,1-10.27,0,.78.78,0,0,0-.76-.61h-.16A32.86,32.86,0,0,0,18.61,15l-6.69,3.09a.78.78,0,0,0-.37,1.08l2.9,5.73a.78.78,0,0,0,.7.43.85.85,0,0,0,.23,0l3.23-1V43.59a.79.79,0,0,0,.79.79H38.59a.79.79,0,0,0,.79-.79V24.36l3.23,1a.91.91,0,0,0,.23,0,.79.79,0,0,0,.7-.43l2.91-5.73A.83.83,0,0,0,46.49,18.57Z"/></svg>