<svg id="Capa_1" data-name="Capa 1" xmlns="http://www.w3.org/2000/svg" viewBox="0 0 37.76 61.64"><defs><style>.cls-1{fill:#808019;}</style></defs><title>vision</title><path class="cls-1" d="M37.25.22,36.77,0a1.09,1.09,0,0,0-.26,0,.77.77,0,0,0-.72.5l-13,35.65-.53,0c-.17,0-.35,0-.53,0a10.26,10.26,0,0,0-7.93,3.37l6.26,1.22.51.1.5.1,2,.39,1,.2,5.59,1.09q0-.34-.06-.66A6.47,6.47,0,0,0,25.74,37l-.46-.2-.48-.18L37.71,1.2a.77.77,0,0,0-.46-1Zm0,0"/><path class="cls-1" d="M20.31,42.79l-7.85-1.52C9.59,45.87,8.55,51.6,6,54.49c-1,1.08-2.91,3.74-6,4.26l16.72,2L21.3,54l-2,7.13,4.4.53s5.19-10.23,5.95-17L23,43.31Zm0,0"/></svg>