<svg id="Capa_1" data-name="Capa 1" xmlns="http://www.w3.org/2000/svg" viewBox="0 0 22 22"><defs><style>.cls-1{fill:#4c9f50;}</style></defs><title>whatsapp</title><path class="cls-1" d="M11,0h0A11,11,0,0,0,2.09,17.45L.72,21.53,5,20.18A11,11,0,1,0,11,0Zm6.4,15.53a3.13,3.13,0,0,1-2.16,1.56c-.57.12-1.32.22-3.85-.83a13.77,13.77,0,0,1-5.47-4.84A6.23,6.23,0,0,1,4.61,8.1,3.5,3.5,0,0,1,5.73,5.43,1.58,1.58,0,0,1,6.86,5h.37c.32,0,.48,0,.7.55L8.91,8A.64.64,0,0,1,9,8.56a1.76,1.76,0,0,1-.36.51c-.16.18-.31.33-.47.53s-.32.36-.13.68A9.52,9.52,0,0,0,9.78,12.5a8.26,8.26,0,0,0,2.58,1.59.71.71,0,0,0,.78-.12c.24-.27.55-.71.86-1.14a.61.61,0,0,1,.79-.24c.29.1,1.86.88,2.19,1s.53.24.61.38A2.65,2.65,0,0,1,17.4,15.53Z"/></svg>